<svg width="21" height="21" viewBox="0 0 21 21" fill="none" xmlns="http://www.w3.org/2000/svg">
<g clip-path="url(#clip0_169_5096)">
<path d="M17.6484 4.74677C16.3629 4.15693 14.9844 3.72235 13.5431 3.47346C13.5168 3.46865 13.4906 3.48066 13.4771 3.50467C13.2998 3.81999 13.1034 4.23135 12.9659 4.55468C11.4157 4.3226 9.87338 4.3226 8.35494 4.55468C8.21739 4.22416 8.01388 3.81999 7.8358 3.50467C7.82228 3.48146 7.79606 3.46945 7.76981 3.47346C6.32929 3.72156 4.95077 4.15613 3.66447 4.74677C3.65334 4.75157 3.64379 4.75958 3.63746 4.76998C1.02271 8.67635 0.306425 12.4867 0.657812 16.2498C0.659401 16.2682 0.669736 16.2858 0.684046 16.297C2.40918 17.5639 4.08027 18.3331 5.72032 18.8429C5.74657 18.8509 5.77438 18.8413 5.79108 18.8196C6.17904 18.2899 6.52487 17.7312 6.82138 17.1438C6.83888 17.1094 6.82218 17.0685 6.78641 17.0549C6.23787 16.8469 5.71555 16.5932 5.21311 16.305C5.17337 16.2818 5.17019 16.225 5.20675 16.1978C5.31248 16.1186 5.41824 16.0361 5.5192 15.9529C5.53747 15.9377 5.56292 15.9345 5.58439 15.9441C8.88519 17.4511 12.4587 17.4511 15.7205 15.9441C15.742 15.9337 15.7675 15.9369 15.7865 15.9521C15.8875 16.0353 15.9932 16.1186 16.0998 16.1978C16.1363 16.225 16.1339 16.2818 16.0942 16.305C15.5918 16.5987 15.0694 16.8469 14.5201 17.0541C14.4843 17.0677 14.4684 17.1094 14.4859 17.1438C14.7888 17.7304 15.1346 18.289 15.5154 18.8188C15.5313 18.8413 15.5599 18.8509 15.5862 18.8429C17.2342 18.3331 18.9053 17.5639 20.6304 16.297C20.6455 16.2858 20.6551 16.269 20.6567 16.2506C21.0772 11.9 19.9523 8.12094 17.6746 4.77077C17.6691 4.75958 17.6595 4.75157 17.6484 4.74677ZM7.3143 13.9585C6.32054 13.9585 5.5017 13.0461 5.5017 11.9257C5.5017 10.8052 6.30466 9.89286 7.3143 9.89286C8.33187 9.89286 9.14278 10.8132 9.12687 11.9257C9.12687 13.0461 8.32392 13.9585 7.3143 13.9585ZM14.0161 13.9585C13.0223 13.9585 12.2035 13.0461 12.2035 11.9257C12.2035 10.8052 13.0064 9.89286 14.0161 9.89286C15.0337 9.89286 15.8446 10.8132 15.8287 11.9257C15.8287 13.0461 15.0337 13.9585 14.0161 13.9585Z" fill="#5865F2"/>
</g>
<defs>
<clipPath id="clip0_169_5096">
<rect width="20.3538" height="20.3538" fill="white" transform="translate(0.480469 0.352295)"/>
</clipPath>
</defs>
</svg>
