<svg width="32" height="32" viewBox="0 0 32 32" fill="none" xmlns="http://www.w3.org/2000/svg">
<path d="M0 16C0 7.16344 7.16344 0 16 0C24.8366 0 32 7.16344 32 16C32 24.8366 24.8366 32 16 32C7.16344 32 0 24.8366 0 16Z" fill="white"/>
<mask id="mask0_1541_1436" style="mask-type:luminance" maskUnits="userSpaceOnUse" x="0" y="0" width="32" height="32">
<path fill-rule="evenodd" clip-rule="evenodd" d="M0 16C0 7.16344 7.16344 0 16 0C24.8366 0 32 7.16344 32 16C32 24.8366 24.8366 32 16 32C7.16344 32 0 24.8366 0 16Z" fill="white"/>
</mask>
<g mask="url(#mask0_1541_1436)">
<path fill-rule="evenodd" clip-rule="evenodd" d="M13.8667 16C13.8667 15.4138 14.2885 14.9333 14.8227 14.9333C15.357 14.9333 15.7882 15.4138 15.7788 16C15.7788 16.5862 15.357 17.0667 14.8227 17.0667C14.2978 17.0667 13.8667 16.5862 13.8667 16ZM17.2879 16C17.2879 15.4138 17.7097 14.9333 18.2439 14.9333C18.7782 14.9333 19.2 15.4138 19.2 16C19.2 16.5862 18.7782 17.0667 18.2439 17.0667C17.719 17.0667 17.2879 16.5862 17.2879 16Z" fill="#7289DA"/>
<path fill-rule="evenodd" clip-rule="evenodd" d="M9.93676 6.93335H22.5966C23.6642 6.93335 24.5333 7.79202 24.5333 8.85602V25.6L22.5021 23.8267L21.3589 22.7813L20.1496 21.6707L20.6504 23.3973H9.93676C8.86918 23.3973 8 22.5387 8 21.4747V8.85602C8 7.79202 8.86918 6.93335 9.93676 6.93335ZM18.3262 18.3667C18.6097 18.7214 18.9498 19.1227 18.9498 19.1227C21.0377 19.0574 21.8408 17.704 21.8408 17.704C21.8408 14.6987 20.4803 12.2627 20.4803 12.2627C19.1198 11.2547 17.8255 11.2827 17.8255 11.2827L17.6933 11.432C19.2994 11.9173 20.0457 12.6174 20.0457 12.6174C19.0632 12.0854 18.0995 11.824 17.202 11.7213C16.5218 11.6467 15.8699 11.6653 15.2936 11.74C15.2441 11.74 15.2018 11.7471 15.1541 11.7551C15.1472 11.7563 15.1402 11.7575 15.133 11.7587C14.8023 11.7867 13.9992 11.908 12.9883 12.3467C12.6388 12.5054 12.4309 12.6174 12.4309 12.6174C12.4309 12.6174 13.2151 11.88 14.9157 11.3947L14.8212 11.2827C14.8212 11.2827 13.5269 11.2547 12.1664 12.2627C12.1664 12.2627 10.8059 14.6987 10.8059 17.704C10.8059 17.704 11.5995 19.0574 13.6875 19.1227C13.6875 19.1227 14.037 18.7027 14.3205 18.348C13.1206 17.9934 12.6671 17.2467 12.6671 17.2467C12.6671 17.2467 12.7616 17.312 12.9317 17.4053C12.9411 17.4147 12.9506 17.424 12.9694 17.4333C12.9836 17.4427 12.9978 17.4497 13.012 17.4567C13.0261 17.4637 13.0403 17.4707 13.0545 17.48C13.2907 17.6107 13.5269 17.7134 13.7442 17.7973C14.1315 17.9467 14.5944 18.096 15.133 18.1987C15.8415 18.3293 16.6729 18.376 17.5799 18.208C18.0239 18.1333 18.4774 18.0027 18.9498 17.8067C19.2805 17.6854 19.6489 17.508 20.0363 17.256C20.0363 17.256 19.5639 18.0213 18.3262 18.3667Z" fill="#7289DA"/>
</g>
</svg>
