<svg width="21" height="21" viewBox="0 0 21 21" fill="none" xmlns="http://www.w3.org/2000/svg">
<g clip-path="url(#clip0_169_5098)">
<path fill-rule="evenodd" clip-rule="evenodd" d="M10.7927 0.862305C8.39183 0.86355 6.06964 1.71391 4.24141 3.26132C2.41318 4.80874 1.19813 6.95231 0.813517 9.30874C0.428903 11.6652 0.899804 14.0808 2.14203 16.1237C3.38425 18.1666 5.31679 19.7035 7.59408 20.4597C8.09649 20.5529 8.28573 20.2415 8.28573 19.9768C8.28573 19.712 8.27568 18.9444 8.27233 18.1051C5.45884 18.7129 4.86433 16.9178 4.86433 16.9178C4.40547 15.7522 3.74229 15.4458 3.74229 15.4458C2.82456 14.8231 3.81096 14.8347 3.81096 14.8347C4.82749 14.9063 5.36172 15.8721 5.36172 15.8721C6.26271 17.4091 7.72805 16.9645 8.30415 16.7047C8.39458 16.0536 8.65751 15.6107 8.94723 15.3593C6.6998 15.1061 4.33848 14.2436 4.33848 10.3904C4.32455 9.39109 4.69749 8.4247 5.38014 7.69116C5.27631 7.43805 4.92964 6.41564 5.47894 5.02689C5.47894 5.02689 6.32802 4.75713 8.26061 6.05763C9.91827 5.60689 11.6672 5.60689 13.3249 6.05763C15.2558 4.75713 16.1032 5.02689 16.1032 5.02689C16.6542 6.41231 16.3075 7.43472 16.2037 7.69116C16.8885 8.42481 17.2622 9.39289 17.247 10.3937C17.247 14.2552 14.8807 15.1061 12.6299 15.3543C12.9916 15.6673 13.3148 16.2784 13.3148 17.2176C13.3148 18.563 13.3031 19.6454 13.3031 19.9768C13.3031 20.2449 13.4856 20.5579 13.9981 20.4597C16.2757 19.7034 18.2084 18.1662 19.4506 16.123C20.6928 14.0797 21.1635 11.6637 20.7784 9.3071C20.3933 6.95045 19.1777 4.80686 17.3489 3.25971C15.52 1.71256 13.1973 0.862761 10.7961 0.862305H10.7927Z" fill="#3A3A3A"/>
<path d="M4.50949 15.3014C4.48772 15.3514 4.40734 15.3663 4.34202 15.3314C4.27671 15.2964 4.22815 15.2315 4.25159 15.1798C4.27504 15.1282 4.35375 15.1149 4.41906 15.1499C4.48438 15.1848 4.53461 15.2514 4.50949 15.3014Z" fill="#3A3A3A"/>
<path d="M4.9185 15.7541C4.88382 15.7714 4.84414 15.7763 4.80626 15.7678C4.76838 15.7593 4.73465 15.738 4.71084 15.7074C4.64553 15.6375 4.63212 15.5409 4.68236 15.4976C4.7326 15.4543 4.82305 15.4743 4.88836 15.5443C4.95367 15.6142 4.96874 15.7108 4.9185 15.7541Z" fill="#3A3A3A"/>
<path d="M5.31836 16.3317C5.25639 16.375 5.15088 16.3317 5.09227 16.2451C5.07606 16.2296 5.06317 16.2109 5.05436 16.1903C5.04556 16.1697 5.04102 16.1476 5.04102 16.1252C5.04102 16.1028 5.04556 16.0807 5.05436 16.0601C5.06317 16.0395 5.07606 16.0208 5.09227 16.0053C5.15423 15.9637 5.25974 16.0053 5.31836 16.0902C5.37697 16.1752 5.37864 16.2884 5.31836 16.3317Z" fill="#3A3A3A"/>
<path d="M5.85874 16.8919C5.80348 16.9535 5.69128 16.9369 5.59917 16.8536C5.50706 16.7704 5.48528 16.6571 5.54055 16.5972C5.59581 16.5372 5.70802 16.5539 5.80348 16.6355C5.89893 16.7171 5.91736 16.832 5.85874 16.8919Z" fill="#3A3A3A"/>
<path d="M6.61843 17.2166C6.59331 17.2948 6.47943 17.3298 6.36555 17.2965C6.25167 17.2632 6.17631 17.17 6.19808 17.09C6.21985 17.0101 6.33541 16.9735 6.45096 17.0101C6.56652 17.0467 6.6402 17.135 6.61843 17.2166Z" fill="#3A3A3A"/>
<path d="M7.44522 17.2738C7.44522 17.3554 7.35144 17.4253 7.23086 17.427C7.11028 17.4286 7.01147 17.362 7.01147 17.2804C7.01147 17.1988 7.10525 17.1289 7.22583 17.1272C7.34641 17.1256 7.44522 17.1905 7.44522 17.2738Z" fill="#3A3A3A"/>
<path d="M8.21554 17.1472C8.23061 17.2288 8.14688 17.3137 8.0263 17.3337C7.90572 17.3537 7.80022 17.3054 7.78515 17.2254C7.77007 17.1455 7.85716 17.0589 7.97439 17.0373C8.09161 17.0156 8.20047 17.0656 8.21554 17.1472Z" fill="#3A3A3A"/>
</g>
<defs>
<clipPath id="clip0_169_5098">
<rect width="20.3538" height="20.3538" fill="white" transform="translate(0.618408 0.352295)"/>
</clipPath>
</defs>
</svg>
