<svg width="27" height="27" viewBox="0 0 27 27" fill="none" xmlns="http://www.w3.org/2000/svg">
<path fill-rule="evenodd" clip-rule="evenodd" d="M8.53554 1.46447C6.58292 -0.488155 3.41709 -0.488155 1.46447 1.46447C-0.48815 3.41709 -0.488149 6.58291 1.46447 8.53553L6.41427 13.4853L1.46447 18.4351C-0.488155 20.3877 -0.488155 23.5536 1.46447 25.5062C3.41709 27.4588 6.58291 27.4588 8.53553 25.5062L13.4853 20.5564L18.435 25.5061C20.3877 27.4587 23.5535 27.4587 25.5061 25.5061C27.4587 23.5535 27.4587 20.3876 25.5061 18.435L20.5564 13.4853L25.5061 8.53563C27.4587 6.58301 27.4587 3.41719 25.5061 1.46457C23.5535 -0.488056 20.3877 -0.488056 18.435 1.46456L13.4853 6.41426L8.53554 1.46447Z" fill="#7D0F0F"/>
<path fill-rule="evenodd" clip-rule="evenodd" d="M8.53554 1.46447C6.58292 -0.488155 3.41709 -0.488155 1.46447 1.46447C-0.48815 3.41709 -0.488149 6.58291 1.46447 8.53553L6.41427 13.4853L1.46447 18.4351C-0.488155 20.3877 -0.488155 23.5536 1.46447 25.5062C3.41709 27.4588 6.58291 27.4588 8.53553 25.5062L13.4853 20.5564L18.435 25.5061C20.3877 27.4587 23.5535 27.4587 25.5061 25.5061C27.4587 23.5535 27.4587 20.3876 25.5061 18.435L20.5564 13.4853L25.5061 8.53563C27.4587 6.58301 27.4587 3.41719 25.5061 1.46457C23.5535 -0.488056 20.3877 -0.488056 18.435 1.46456L13.4853 6.41426L8.53554 1.46447Z" fill="url(#paint0_linear_1541_2614)" fill-opacity="0.2"/>
<defs>
<linearGradient id="paint0_linear_1541_2614" x1="13.4853" y1="9.98535" x2="13.4853" y2="13.4854" gradientUnits="userSpaceOnUse">
<stop stop-color="white"/>
<stop offset="1" stop-color="white" stop-opacity="0"/>
</linearGradient>
</defs>
</svg>
