<svg width="37" height="39" viewBox="0 0 37 39" fill="none" xmlns="http://www.w3.org/2000/svg">
<path d="M13.2862 14.125C13.7074 12.9276 14.5388 11.9179 15.6332 11.2747C16.7275 10.6316 18.0142 10.3965 19.2653 10.6111C20.5164 10.8257 21.6512 11.4761 22.4686 12.4472C23.2861 13.4183 23.7335 14.6473 23.7316 15.9167C23.7316 19.5 18.3566 21.2917 18.3566 21.2917M18.5 28.4584H18.5179M2.375 12.2285V26.7716C2.375 27.3855 2.375 27.6925 2.46545 27.9662C2.54547 28.2084 2.67628 28.4307 2.84913 28.6183C3.04452 28.8303 3.31284 28.9794 3.84949 29.2775L17.1078 36.6433C17.6159 36.9256 17.87 37.0667 18.1391 37.1221C18.3772 37.171 18.6228 37.171 18.8609 37.1221C19.13 37.0667 19.3841 36.9256 19.8922 36.6433L33.1505 29.2775C33.6872 28.9794 33.9555 28.8303 34.1509 28.6183C34.3237 28.4307 34.4545 28.2084 34.5345 27.9662C34.625 27.6925 34.625 27.3855 34.625 26.7716V12.2285C34.625 11.6146 34.625 11.3076 34.5345 11.0339C34.4545 10.7917 34.3237 10.5693 34.1509 10.3818C33.9555 10.1698 33.6872 10.0207 33.1505 9.72255L19.8922 2.35681C19.3841 2.07452 19.13 1.93338 18.8609 1.87804C18.6228 1.82906 18.3772 1.82906 18.1391 1.87804C17.87 1.93338 17.6159 2.07452 17.1078 2.35681L3.84949 9.72255C3.31284 10.0207 3.04452 10.1698 2.84913 10.3818C2.67628 10.5693 2.54547 10.7917 2.46545 11.0339C2.375 11.3076 2.375 11.6146 2.375 12.2285Z" stroke="#6C0606" stroke-width="3.5" stroke-linecap="round" stroke-linejoin="round"/>
</svg>
