<svg width="22" height="21" viewBox="0 0 22 21" fill="none" xmlns="http://www.w3.org/2000/svg">
<path fill-rule="evenodd" clip-rule="evenodd" d="M2.65206 9.9298C7.91137 7.63841 11.4184 6.12778 13.1732 5.39792C18.1833 3.31402 19.2244 2.95202 19.903 2.94007C20.0522 2.93744 20.3859 2.97443 20.6021 3.14982C20.7846 3.29792 20.8348 3.49798 20.8588 3.63839C20.8828 3.7788 20.9128 4.09867 20.889 4.3486C20.6175 7.20131 19.4427 14.1241 18.845 17.3191C18.5921 18.6711 18.0942 19.1244 17.6121 19.1688C16.5644 19.2652 15.7689 18.4764 14.7541 17.8112C13.1663 16.7704 12.2693 16.1224 10.728 15.1068C8.94678 13.933 10.1015 13.2878 11.1166 12.2335C11.3822 11.9576 15.9983 7.75892 16.0876 7.37803C16.0988 7.33039 16.1092 7.15283 16.0037 7.05907C15.8982 6.96531 15.7425 6.99737 15.6302 7.02287C15.4709 7.05901 12.9343 8.73561 8.02038 12.0527C7.30037 12.5471 6.64821 12.788 6.0639 12.7753C5.41975 12.7614 4.18065 12.4111 3.25951 12.1117C2.12969 11.7444 1.23173 11.5503 1.30992 10.9265C1.35065 10.6017 1.79803 10.2694 2.65206 9.9298Z" fill="url(#paint0_linear_169_5085)"/>
<defs>
<linearGradient id="paint0_linear_169_5085" x1="11.1014" y1="2.93994" x2="11.1014" y2="19.0564" gradientUnits="userSpaceOnUse">
<stop stop-color="#2AABEE"/>
<stop offset="1" stop-color="#229ED9"/>
</linearGradient>
</defs>
</svg>
