<svg width="35" height="19" viewBox="0 0 35 19" fill="none" xmlns="http://www.w3.org/2000/svg">
<path d="M16.4393 3.0044C15.8536 2.4186 15.8536 1.4688 16.4393 0.883001C17.0251 0.297301 17.9749 0.297301 18.5607 0.883001L34.117 16.4394C34.7028 17.0252 34.7028 17.9749 34.117 18.5607C33.5312 19.1465 32.5815 19.1465 31.9957 18.5607L16.4393 3.0044Z" fill="#7E0C0C"/>
<path d="M16.4393 3.0044C15.8536 2.4186 15.8536 1.4688 16.4393 0.883001C17.0251 0.297301 17.9749 0.297301 18.5607 0.883001L34.117 16.4394C34.7028 17.0252 34.7028 17.9749 34.117 18.5607C33.5312 19.1465 32.5815 19.1465 31.9957 18.5607L16.4393 3.0044Z" fill="url(#paint0_linear_1624_87)" fill-opacity="0.8"/>
<path d="M16.4393 0.883001C17.0251 0.297301 17.9749 0.297301 18.5607 0.883001C19.1464 1.4688 19.1464 2.4186 18.5607 3.0044L3.00431 18.5607C2.41851 19.1465 1.46881 19.1465 0.883015 18.5607C0.297215 17.9749 0.297215 17.0252 0.883015 16.4394L16.4393 0.883001Z" fill="#7E0C0C"/>
<path d="M16.4393 0.883001C17.0251 0.297301 17.9749 0.297301 18.5607 0.883001C19.1464 1.4688 19.1464 2.4186 18.5607 3.0044L3.00431 18.5607C2.41851 19.1465 1.46881 19.1465 0.883015 18.5607C0.297215 17.9749 0.297215 17.0252 0.883015 16.4394L16.4393 0.883001Z" fill="url(#paint1_linear_1624_87)" fill-opacity="0.8"/>
<defs>
<linearGradient id="paint0_linear_1624_87" x1="29.5" y1="5" x2="29.5" y2="30" gradientUnits="userSpaceOnUse">
<stop stop-color="#FF0000"/>
<stop offset="1" stop-color="#FF0000" stop-opacity="0"/>
</linearGradient>
<linearGradient id="paint1_linear_1624_87" x1="29.5" y1="5" x2="29.5" y2="30" gradientUnits="userSpaceOnUse">
<stop stop-color="#FF0000"/>
<stop offset="1" stop-color="#FF0000" stop-opacity="0"/>
</linearGradient>
</defs>
</svg>
