<svg width="21" height="21" viewBox="0 0 21 21" fill="none" xmlns="http://www.w3.org/2000/svg">
<g clip-path="url(#clip0_169_5089)">
<path d="M20.1374 5.63659C19.9027 4.76477 19.2153 4.07737 18.3435 3.84265C16.7507 3.40674 10.3797 3.40674 10.3797 3.40674C10.3797 3.40674 4.00872 3.40674 2.41597 3.82588C1.56091 4.0606 0.856747 4.76477 0.622026 5.63659C0.202881 7.22934 0.202881 10.5322 0.202881 10.5322C0.202881 10.5322 0.202881 13.8518 0.622026 15.4278C0.856747 16.2996 1.54414 16.987 2.41597 17.2218C4.02548 17.6577 10.3797 17.6577 10.3797 17.6577C10.3797 17.6577 16.7507 17.6577 18.3435 17.2385C19.2153 17.0038 19.9027 16.3164 20.1374 15.4446C20.5566 13.8518 20.5566 10.549 20.5566 10.549C20.5566 10.549 20.5733 7.22934 20.1374 5.63659Z" fill="#FF0000"/>
<path d="M8.35034 13.5849L13.6483 10.5336L8.35034 7.48218V13.5849Z" fill="white"/>
</g>
<defs>
<clipPath id="clip0_169_5089">
<rect width="20.3538" height="20.3538" fill="white" transform="translate(0.202393 0.352295)"/>
</clipPath>
</defs>
</svg>
